<svg width="194" height="24" viewBox="0 0 194 24" fill="none" xmlns="http://www.w3.org/2000/svg">
<path d="M2.25 6.75C2.25 15.034 8.966 21.75 17.25 21.75H19.5C20.0967 21.75 20.669 21.5129 21.091 21.091C21.5129 20.669 21.75 20.0967 21.75 19.5V18.128C21.75 17.612 21.399 17.162 20.898 17.037L16.475 15.931C16.035 15.821 15.573 15.986 15.302 16.348L14.332 17.641C14.05 18.017 13.563 18.183 13.122 18.021C11.4849 17.4191 9.99815 16.4686 8.76478 15.2352C7.53141 14.0018 6.58087 12.5151 5.979 10.878C5.817 10.437 5.983 9.95 6.359 9.668L7.652 8.698C8.015 8.427 8.179 7.964 8.069 7.525L6.963 3.102C6.90214 2.85869 6.76172 2.6427 6.56405 2.48834C6.36638 2.33397 6.1228 2.25008 5.872 2.25H4.5C3.90326 2.25 3.33097 2.48705 2.90901 2.90901C2.48705 3.33097 2.25 3.90326 2.25 4.5V6.75Z" stroke="#00B068" stroke-linecap="round" stroke-linejoin="round"/>
<path d="M49.328 12.56H45.76V16.16H44.72V12.56H41.168V11.6H44.72V8H45.76V11.6H49.328V12.56ZM51.9764 9.456C52.051 8.48533 52.4244 7.72267 53.0964 7.168C53.779 6.60267 54.659 6.32 55.7364 6.32C56.451 6.32 57.0644 6.448 57.5764 6.704C58.0884 6.96 58.4724 7.312 58.7284 7.76C58.995 8.19733 59.1284 8.69333 59.1284 9.248C59.1284 9.92 58.931 10.5013 58.5364 10.992C58.1417 11.4827 57.5817 11.7867 56.8564 11.904V11.984C57.6137 12.1333 58.2164 12.464 58.6644 12.976C59.1124 13.4773 59.3364 14.1387 59.3364 14.96C59.3364 15.8773 59.027 16.6293 58.4084 17.216C57.8004 17.792 56.915 18.08 55.7524 18.08C54.643 18.08 53.731 17.792 53.0164 17.216C52.3017 16.6293 51.891 15.8027 51.7844 14.736H52.8724C52.9684 15.4507 53.267 16.032 53.7684 16.48C54.2697 16.9173 54.931 17.136 55.7524 17.136C56.563 17.136 57.1817 16.9227 57.6084 16.496C58.0457 16.0693 58.2644 15.5253 58.2644 14.864C58.2644 13.2427 57.0964 12.432 54.7604 12.432H54.4084V11.488H54.7764C56.9524 11.488 58.0404 10.7787 58.0404 9.36C58.0404 8.74133 57.8377 8.24533 57.4324 7.872C57.027 7.488 56.451 7.296 55.7044 7.296C54.979 7.296 54.3764 7.488 53.8964 7.872C53.427 8.24533 53.1497 8.77333 53.0644 9.456H51.9764ZM64.1078 12.048C63.4464 11.8347 62.9398 11.4987 62.5878 11.04C62.2464 10.5813 62.0758 10.0267 62.0758 9.376C62.0758 8.8 62.2198 8.288 62.5078 7.84C62.8064 7.38133 63.2384 7.024 63.8038 6.768C64.3691 6.50133 65.0464 6.368 65.8358 6.368C66.6251 6.368 67.3024 6.50133 67.8678 6.768C68.4331 7.024 68.8598 7.38133 69.1478 7.84C69.4464 8.288 69.5958 8.8 69.5958 9.376C69.5958 10.016 69.4198 10.5707 69.0677 11.04C68.7264 11.5093 68.2251 11.8453 67.5638 12.048C68.2891 12.2293 68.8598 12.576 69.2758 13.088C69.6918 13.6 69.8998 14.224 69.8998 14.96C69.8998 15.6427 69.7291 16.24 69.3878 16.752C69.0571 17.2533 68.5824 17.6427 67.9638 17.92C67.3558 18.1973 66.6464 18.336 65.8358 18.336C65.0251 18.336 64.3104 18.1973 63.6918 17.92C63.0838 17.6427 62.6091 17.2533 62.2678 16.752C61.9371 16.24 61.7718 15.6427 61.7718 14.96C61.7718 14.224 61.9798 13.6 62.3958 13.088C62.8118 12.576 63.3824 12.2293 64.1078 12.048ZM68.5078 9.504C68.5078 8.8 68.2678 8.256 67.7878 7.872C67.3078 7.488 66.6571 7.296 65.8358 7.296C65.0144 7.296 64.3638 7.488 63.8838 7.872C63.4038 8.24533 63.1638 8.78933 63.1638 9.504C63.1638 10.1653 63.4091 10.6933 63.8998 11.088C64.3904 11.4827 65.0358 11.68 65.8358 11.68C66.6358 11.68 67.2811 11.4827 67.7718 11.088C68.2624 10.6933 68.5078 10.1653 68.5078 9.504ZM65.8358 12.544C64.9611 12.544 64.2464 12.7413 63.6918 13.136C63.1371 13.5307 62.8598 14.128 62.8598 14.928C62.8598 15.696 63.1264 16.2987 63.6598 16.736C64.1931 17.1733 64.9184 17.392 65.8358 17.392C66.7424 17.392 67.4624 17.1733 67.9958 16.736C68.5291 16.288 68.7958 15.6853 68.7958 14.928C68.7958 14.1387 68.5184 13.5467 67.9638 13.152C67.4198 12.7467 66.7104 12.544 65.8358 12.544ZM77.2588 12.16C77.2588 10.3253 77.5414 8.90133 78.1068 7.888C78.6721 6.87467 79.6854 6.368 81.1468 6.368C82.6081 6.368 83.6214 6.87467 84.1868 7.888C84.7521 8.90133 85.0347 10.3253 85.0347 12.16C85.0347 14.0267 84.7521 15.472 84.1868 16.496C83.6214 17.52 82.6081 18.032 81.1468 18.032C79.6748 18.032 78.6561 17.52 78.0908 16.496C77.5361 15.472 77.2588 14.0267 77.2588 12.16ZM83.9308 12.16C83.9308 11.168 83.8614 10.3307 83.7228 9.648C83.5841 8.96533 83.3121 8.416 82.9068 8C82.5014 7.584 81.9148 7.376 81.1468 7.376C80.3788 7.376 79.7921 7.584 79.3868 8C78.9814 8.416 78.7094 8.96533 78.5707 9.648C78.4321 10.3307 78.3628 11.168 78.3628 12.16C78.3628 13.184 78.4321 14.0427 78.5707 14.736C78.7094 15.4187 78.9814 15.968 79.3868 16.384C79.7921 16.8 80.3788 17.008 81.1468 17.008C81.9148 17.008 82.5014 16.8 82.9068 16.384C83.3121 15.968 83.5841 15.4187 83.7228 14.736C83.8614 14.0427 83.9308 13.184 83.9308 12.16ZM89.1061 14.944C89.2235 15.6373 89.4901 16.1707 89.9061 16.544C90.3221 16.9173 90.8928 17.104 91.6181 17.104C92.6208 17.104 93.3621 16.7147 93.8421 15.936C94.3328 15.1467 94.5568 13.8453 94.5141 12.032C94.3115 12.6187 93.9221 13.0827 93.3461 13.424C92.7808 13.7547 92.1301 13.92 91.3941 13.92C90.2741 13.92 89.3728 13.584 88.6901 12.912C88.0181 12.24 87.6821 11.3067 87.6821 10.112C87.6821 9.39733 87.8208 8.752 88.0981 8.176C88.3755 7.6 88.7968 7.14667 89.3621 6.816C89.9275 6.48533 90.6208 6.32 91.4421 6.32C92.9568 6.32 94.0128 6.816 94.6101 7.808C95.2075 8.78933 95.5061 10.2027 95.5061 12.048C95.5061 14.0427 95.2075 15.5413 94.6101 16.544C94.0235 17.5467 93.0101 18.048 91.5701 18.048C90.5141 18.048 89.6928 17.7653 89.1061 17.2C88.5195 16.624 88.1728 15.872 88.0661 14.944H89.1061ZM91.5701 12.96C92.0715 12.96 92.5301 12.8587 92.9461 12.656C93.3728 12.4427 93.7141 12.1333 93.9701 11.728C94.2261 11.3227 94.3541 10.8373 94.3541 10.272C94.3541 9.39733 94.1035 8.67733 93.6021 8.112C93.1115 7.54667 92.4021 7.264 91.4741 7.264C90.6528 7.264 89.9915 7.52 89.4901 8.032C88.9995 8.544 88.7541 9.22667 88.7541 10.08C88.7541 10.976 88.9995 11.68 89.4901 12.192C89.9808 12.704 90.6741 12.96 91.5701 12.96ZM98.1181 12.16C98.1181 10.3253 98.4008 8.90133 98.9661 7.888C99.5315 6.87467 100.545 6.368 102.006 6.368C103.467 6.368 104.481 6.87467 105.046 7.888C105.611 8.90133 105.894 10.3253 105.894 12.16C105.894 14.0267 105.611 15.472 105.046 16.496C104.481 17.52 103.467 18.032 102.006 18.032C100.534 18.032 99.5155 17.52 98.9501 16.496C98.3955 15.472 98.1181 14.0267 98.1181 12.16ZM104.79 12.16C104.79 11.168 104.721 10.3307 104.582 9.648C104.443 8.96533 104.171 8.416 103.766 8C103.361 7.584 102.774 7.376 102.006 7.376C101.238 7.376 100.651 7.584 100.246 8C99.8408 8.416 99.5688 8.96533 99.4301 9.648C99.2915 10.3307 99.2221 11.168 99.2221 12.16C99.2221 13.184 99.2915 14.0427 99.4301 14.736C99.5688 15.4187 99.8408 15.968 100.246 16.384C100.651 16.8 101.238 17.008 102.006 17.008C102.774 17.008 103.361 16.8 103.766 16.384C104.171 15.968 104.443 15.4187 104.582 14.736C104.721 14.0427 104.79 13.184 104.79 12.16ZM112.872 15.28V14.432L118.696 6.592H120.024V14.304H121.736V15.28H120.024V18H118.92V15.28H112.872ZM118.968 7.824L114.168 14.304H118.968V7.824ZM130.913 7.488H125.057V11.584C125.323 11.2107 125.713 10.9067 126.225 10.672C126.737 10.4267 127.291 10.304 127.889 10.304C128.763 10.304 129.478 10.4853 130.033 10.848C130.587 11.2 130.987 11.664 131.233 12.24C131.478 12.8053 131.601 13.4133 131.601 14.064C131.601 14.8107 131.457 15.488 131.169 16.096C130.891 16.6933 130.459 17.168 129.873 17.52C129.297 17.872 128.577 18.048 127.713 18.048C126.614 18.048 125.723 17.7653 125.041 17.2C124.358 16.624 123.942 15.8507 123.793 14.88H124.897C125.035 15.584 125.355 16.128 125.857 16.512C126.358 16.896 126.977 17.088 127.713 17.088C128.641 17.088 129.339 16.816 129.809 16.272C130.289 15.7173 130.529 14.9867 130.529 14.08C130.529 13.1947 130.289 12.5067 129.809 12.016C129.329 11.5147 128.641 11.264 127.745 11.264C127.126 11.264 126.582 11.408 126.113 11.696C125.643 11.984 125.297 12.3733 125.073 12.864H124.017V6.512H130.913V7.488ZM140.648 9.328C140.413 7.94133 139.608 7.248 138.232 7.248C137.186 7.248 136.402 7.65333 135.88 8.464C135.357 9.27467 135.117 10.6027 135.16 12.448C135.373 11.808 135.778 11.3067 136.376 10.944C136.984 10.5707 137.677 10.384 138.456 10.384C139.576 10.384 140.461 10.7307 141.112 11.424C141.773 12.1067 142.104 13.0507 142.104 14.256C142.104 14.96 141.965 15.6 141.688 16.176C141.421 16.7413 141.005 17.1947 140.44 17.536C139.885 17.8773 139.192 18.048 138.36 18.048C136.77 18.048 135.672 17.5413 135.064 16.528C134.466 15.5147 134.168 14.08 134.168 12.224C134.168 8.27733 135.522 6.304 138.232 6.304C139.256 6.304 140.061 6.58667 140.648 7.152C141.234 7.70667 141.581 8.432 141.688 9.328H140.648ZM138.248 11.344C137.746 11.344 137.272 11.4453 136.824 11.648C136.376 11.8507 136.008 12.16 135.72 12.576C135.442 12.9813 135.304 13.4827 135.304 14.08C135.304 14.944 135.56 15.664 136.072 16.24C136.584 16.816 137.33 17.104 138.312 17.104C139.133 17.104 139.789 16.8533 140.28 16.352C140.77 15.8507 141.016 15.168 141.016 14.304C141.016 13.376 140.776 12.6507 140.296 12.128C139.816 11.6053 139.133 11.344 138.248 11.344ZM156.373 7.408L151.909 18H150.773L155.285 7.504H148.885V6.544H156.373V7.408ZM160.764 12.048C160.103 11.8347 159.596 11.4987 159.244 11.04C158.903 10.5813 158.732 10.0267 158.732 9.376C158.732 8.8 158.876 8.288 159.164 7.84C159.463 7.38133 159.895 7.024 160.46 6.768C161.025 6.50133 161.703 6.368 162.492 6.368C163.281 6.368 163.959 6.50133 164.524 6.768C165.089 7.024 165.516 7.38133 165.804 7.84C166.103 8.288 166.252 8.8 166.252 9.376C166.252 10.016 166.076 10.5707 165.724 11.04C165.383 11.5093 164.881 11.8453 164.22 12.048C164.945 12.2293 165.516 12.576 165.932 13.088C166.348 13.6 166.556 14.224 166.556 14.96C166.556 15.6427 166.385 16.24 166.044 16.752C165.713 17.2533 165.239 17.6427 164.62 17.92C164.012 18.1973 163.303 18.336 162.492 18.336C161.681 18.336 160.967 18.1973 160.348 17.92C159.74 17.6427 159.265 17.2533 158.924 16.752C158.593 16.24 158.428 15.6427 158.428 14.96C158.428 14.224 158.636 13.6 159.052 13.088C159.468 12.576 160.039 12.2293 160.764 12.048ZM165.164 9.504C165.164 8.8 164.924 8.256 164.444 7.872C163.964 7.488 163.313 7.296 162.492 7.296C161.671 7.296 161.02 7.488 160.54 7.872C160.06 8.24533 159.82 8.78933 159.82 9.504C159.82 10.1653 160.065 10.6933 160.556 11.088C161.047 11.4827 161.692 11.68 162.492 11.68C163.292 11.68 163.937 11.4827 164.428 11.088C164.919 10.6933 165.164 10.1653 165.164 9.504ZM162.492 12.544C161.617 12.544 160.903 12.7413 160.348 13.136C159.793 13.5307 159.516 14.128 159.516 14.928C159.516 15.696 159.783 16.2987 160.316 16.736C160.849 17.1733 161.575 17.392 162.492 17.392C163.399 17.392 164.119 17.1733 164.652 16.736C165.185 16.288 165.452 15.6853 165.452 14.928C165.452 14.1387 165.175 13.5467 164.62 13.152C164.076 12.7467 163.367 12.544 162.492 12.544ZM175.403 14.944C175.52 15.6373 175.787 16.1707 176.203 16.544C176.619 16.9173 177.19 17.104 177.915 17.104C178.918 17.104 179.659 16.7147 180.139 15.936C180.63 15.1467 180.854 13.8453 180.811 12.032C180.608 12.6187 180.219 13.0827 179.643 13.424C179.078 13.7547 178.427 13.92 177.691 13.92C176.571 13.92 175.67 13.584 174.987 12.912C174.315 12.24 173.979 11.3067 173.979 10.112C173.979 9.39733 174.118 8.752 174.395 8.176C174.672 7.6 175.094 7.14667 175.659 6.816C176.224 6.48533 176.918 6.32 177.739 6.32C179.254 6.32 180.31 6.816 180.907 7.808C181.504 8.78933 181.803 10.2027 181.803 12.048C181.803 14.0427 181.504 15.5413 180.907 16.544C180.32 17.5467 179.307 18.048 177.867 18.048C176.811 18.048 175.99 17.7653 175.403 17.2C174.816 16.624 174.47 15.872 174.363 14.944H175.403ZM177.867 12.96C178.368 12.96 178.827 12.8587 179.243 12.656C179.67 12.4427 180.011 12.1333 180.267 11.728C180.523 11.3227 180.651 10.8373 180.651 10.272C180.651 9.39733 180.4 8.67733 179.899 8.112C179.408 7.54667 178.699 7.264 177.771 7.264C176.95 7.264 176.288 7.52 175.787 8.032C175.296 8.544 175.051 9.22667 175.051 10.08C175.051 10.976 175.296 11.68 175.787 12.192C176.278 12.704 176.971 12.96 177.867 12.96ZM184.415 12.16C184.415 10.3253 184.698 8.90133 185.263 7.888C185.828 6.87467 186.842 6.368 188.303 6.368C189.764 6.368 190.778 6.87467 191.343 7.888C191.908 8.90133 192.191 10.3253 192.191 12.16C192.191 14.0267 191.908 15.472 191.343 16.496C190.778 17.52 189.764 18.032 188.303 18.032C186.831 18.032 185.812 17.52 185.247 16.496C184.692 15.472 184.415 14.0267 184.415 12.16ZM191.087 12.16C191.087 11.168 191.018 10.3307 190.879 9.648C190.74 8.96533 190.468 8.416 190.063 8C189.658 7.584 189.071 7.376 188.303 7.376C187.535 7.376 186.948 7.584 186.543 8C186.138 8.416 185.866 8.96533 185.727 9.648C185.588 10.3307 185.519 11.168 185.519 12.16C185.519 13.184 185.588 14.0427 185.727 14.736C185.866 15.4187 186.138 15.968 186.543 16.384C186.948 16.8 187.535 17.008 188.303 17.008C189.071 17.008 189.658 16.8 190.063 16.384C190.468 15.968 190.74 15.4187 190.879 14.736C191.018 14.0427 191.087 13.184 191.087 12.16Z" fill="#292929"/>
</svg>
