<svg aria-hidden="true" style="position:absolute;width:0;height:0;overflow:hidden" xmlns="http://www.w3.org/2000/svg">
  <defs>
    <!-- <symbol id="icon-dot-big" viewBox="0 0 32 32">
<path d="M18.667 10.667h-5.333c-1.473 0-2.667 1.194-2.667 2.667v5.333c0 1.473 1.194 2.667 2.667 2.667h5.333c1.473 0 2.667-1.194 2.667-2.667v-5.333c0-1.473-1.194-2.667-2.667-2.667z"></path>
</symbol> -->

<symbol id="icon-dot-big" viewBox="0 0 32 32">
<path d="M18.667 10.667h-5.333c-1.473 0-2.667 1.194-2.667 2.667v5.333c0 1.473 1.194 2.667 2.667 2.667h5.333c1.473 0 2.667-1.194 2.667-2.667v-5.333c0-1.473-1.194-2.667-2.667-2.667z"></path>
</symbol>

    <symbol id="icon-dot" viewBox="0 0 32 32">
      <path d="M17.333 13.333h-2.667c-.736 0-1.333.597-1.333 1.333v2.667c0 .736.597 1.333 1.333 1.333h2.667c.736 0 1.333-.597 1.333-1.333v-2.667c0-.736-.597-1.333-1.333-1.333z"/>
    </symbol>
  </defs>
</svg>